<mxfile host="65bd71144e">
    <diagram id="I62i72dMjfkJ9LeJeDav" name="第 1 页">
        <mxGraphModel dx="1386" dy="784" grid="1" gridSize="10" guides="1" tooltips="1" connect="1" arrows="1" fold="1" page="1" pageScale="1" pageWidth="850" pageHeight="1100" math="0" shadow="0">
            <root>
                <mxCell id="0"/>
                <mxCell id="1" parent="0"/>
                <mxCell id="2" value="" style="rounded=1;whiteSpace=wrap;html=1;fillColor=#dae8fc;strokeColor=#6c8ebf;" vertex="1" parent="1">
                    <mxGeometry x="120" y="100" width="560" height="280" as="geometry"/>
                </mxCell>
                <mxCell id="3" value="&lt;font style=&quot;font-size: 20px;&quot;&gt;虚拟航行控制服务器&lt;/font&gt;" style="text;html=1;align=center;verticalAlign=middle;resizable=0;points=[];autosize=1;strokeColor=#6c8ebf;fillColor=#dae8fc;rounded=1;glass=0;shadow=0;labelBackgroundColor=none;labelBorderColor=none;fontColor=#FF3333;" vertex="1" parent="1">
                    <mxGeometry x="310" y="50" width="200" height="40" as="geometry"/>
                </mxCell>
                <mxCell id="4" value="数据接收模块" style="rounded=1;whiteSpace=wrap;html=1;shadow=0;glass=0;labelBackgroundColor=none;labelBorderColor=none;sketch=0;fontSize=20;fillColor=#dae8fc;strokeColor=#6c8ebf;" vertex="1" parent="1">
                    <mxGeometry x="460" y="290" width="150" height="60" as="geometry"/>
                </mxCell>
                <mxCell id="5" value="航行控制算法模块" style="rounded=1;whiteSpace=wrap;html=1;shadow=0;glass=0;labelBackgroundColor=none;labelBorderColor=none;sketch=0;fontSize=20;fillColor=#dae8fc;strokeColor=#6c8ebf;" vertex="1" parent="1">
                    <mxGeometry x="440" y="150" width="190" height="60" as="geometry"/>
                </mxCell>
                <mxCell id="6" value="决策模块" style="rounded=1;whiteSpace=wrap;html=1;shadow=0;glass=0;labelBackgroundColor=none;labelBorderColor=none;sketch=0;fontSize=20;fillColor=#dae8fc;strokeColor=#6c8ebf;" vertex="1" parent="1">
                    <mxGeometry x="190" y="150" width="140" height="60" as="geometry"/>
                </mxCell>
                <mxCell id="7" value="控制指令生成模块" style="rounded=1;whiteSpace=wrap;html=1;shadow=0;glass=0;labelBackgroundColor=none;labelBorderColor=none;sketch=0;fontSize=20;fillColor=#dae8fc;strokeColor=#6c8ebf;" vertex="1" parent="1">
                    <mxGeometry x="170" y="290" width="190" height="60" as="geometry"/>
                </mxCell>
                <mxCell id="9" value="" style="rounded=1;whiteSpace=wrap;html=1;fillColor=#dae8fc;strokeColor=#6c8ebf;" vertex="1" parent="1">
                    <mxGeometry x="310" y="500" width="560" height="330" as="geometry"/>
                </mxCell>
                <mxCell id="10" value="&lt;font style=&quot;font-size: 20px;&quot;&gt;无人艇传感器&lt;/font&gt;" style="text;html=1;align=center;verticalAlign=middle;resizable=0;points=[];autosize=1;strokeColor=#6c8ebf;fillColor=#dae8fc;rounded=1;glass=0;shadow=0;labelBackgroundColor=none;labelBorderColor=none;fontColor=#FF3333;" vertex="1" parent="1">
                    <mxGeometry x="510" y="840" width="140" height="40" as="geometry"/>
                </mxCell>
                <mxCell id="13" value="" style="dashed=0;aspect=fixed;verticalLabelPosition=bottom;verticalAlign=top;align=center;shape=mxgraph.gmdl.gps;strokeColor=#737373;fillColor=#737373;shadow=0;strokeWidth=2;sketch=0;rounded=1;glass=0;labelBackgroundColor=none;labelBorderColor=none;fontSize=20;fontColor=#FF3333;" vertex="1" parent="1">
                    <mxGeometry x="390" y="540" width="70" height="70" as="geometry"/>
                </mxCell>
                <mxCell id="14" value="GPS" style="rounded=1;whiteSpace=wrap;html=1;shadow=0;glass=0;labelBackgroundColor=none;labelBorderColor=none;sketch=0;fontSize=20;fillColor=#dae8fc;strokeColor=#6c8ebf;" vertex="1" parent="1">
                    <mxGeometry x="385" y="620" width="80" height="30" as="geometry"/>
                </mxCell>
                <mxCell id="15" value="" style="outlineConnect=0;dashed=0;verticalLabelPosition=bottom;verticalAlign=top;align=center;html=1;shape=mxgraph.aws3.camera;fillColor=#5294CF;gradientColor=none;rounded=1;shadow=0;glass=0;labelBackgroundColor=none;labelBorderColor=none;sketch=0;fontSize=20;fontColor=#FF3333;" vertex="1" parent="1">
                    <mxGeometry x="680" y="536" width="79.5" height="79.5" as="geometry"/>
                </mxCell>
                <mxCell id="16" value="摄像头" style="rounded=1;whiteSpace=wrap;html=1;shadow=0;glass=0;labelBackgroundColor=none;labelBorderColor=none;sketch=0;fontSize=20;fillColor=#dae8fc;strokeColor=#6c8ebf;" vertex="1" parent="1">
                    <mxGeometry x="680" y="620" width="80" height="30" as="geometry"/>
                </mxCell>
                <mxCell id="17" value="" style="sketch=0;pointerEvents=1;shadow=0;dashed=0;html=1;strokeColor=none;fillColor=#505050;labelPosition=center;verticalLabelPosition=bottom;verticalAlign=top;outlineConnect=0;align=center;shape=mxgraph.office.concepts.navigation;rounded=1;glass=0;labelBackgroundColor=none;labelBorderColor=none;fontSize=20;fontColor=#FF3333;" vertex="1" parent="1">
                    <mxGeometry x="385" y="700" width="90" height="70" as="geometry"/>
                </mxCell>
                <mxCell id="18" value="惯性导航系统" style="rounded=1;whiteSpace=wrap;html=1;shadow=0;glass=0;labelBackgroundColor=none;labelBorderColor=none;sketch=0;fontSize=20;fillColor=#dae8fc;strokeColor=#6c8ebf;" vertex="1" parent="1">
                    <mxGeometry x="357.5" y="780" width="135" height="30" as="geometry"/>
                </mxCell>
                <mxCell id="20" value="" style="verticalLabelPosition=bottom;html=1;verticalAlign=top;align=center;shape=mxgraph.floorplan.floor_lamp;rounded=1;shadow=0;glass=0;labelBackgroundColor=none;labelBorderColor=none;sketch=0;fontSize=20;fontColor=#FF3333;fillColor=default;" vertex="1" parent="1">
                    <mxGeometry x="682.25" y="700" width="75" height="70" as="geometry"/>
                </mxCell>
                <mxCell id="21" value="声呐" style="rounded=1;whiteSpace=wrap;html=1;shadow=0;glass=0;labelBackgroundColor=none;labelBorderColor=none;sketch=0;fontSize=20;fillColor=#dae8fc;strokeColor=#6c8ebf;" vertex="1" parent="1">
                    <mxGeometry x="682.25" y="780" width="80" height="30" as="geometry"/>
                </mxCell>
                <mxCell id="22" value="" style="shape=mxgraph.signs.transportation.ship_1;html=1;pointerEvents=1;fillColor=#000000;strokeColor=none;verticalLabelPosition=bottom;verticalAlign=top;align=center;rounded=1;shadow=0;glass=0;labelBackgroundColor=none;labelBorderColor=none;sketch=0;fontSize=20;fontColor=#FF3333;" vertex="1" parent="1">
                    <mxGeometry x="90" y="518.75" width="150" height="114" as="geometry"/>
                </mxCell>
                <mxCell id="23" value="指令执行" style="rounded=1;whiteSpace=wrap;html=1;shadow=0;glass=0;labelBackgroundColor=none;labelBorderColor=none;sketch=0;fontSize=20;fillColor=#dae8fc;strokeColor=#6c8ebf;" vertex="1" parent="1">
                    <mxGeometry x="90" y="640" width="150" height="60" as="geometry"/>
                </mxCell>
                <mxCell id="25" value="" style="endArrow=classic;html=1;fontSize=20;fontColor=#FF3333;strokeWidth=3;" edge="1" parent="1">
                    <mxGeometry width="50" height="50" relative="1" as="geometry">
                        <mxPoint x="580" y="500" as="sourcePoint"/>
                        <mxPoint x="580" y="380" as="targetPoint"/>
                    </mxGeometry>
                </mxCell>
                <mxCell id="27" value="&lt;font color=&quot;#0000ff&quot; style=&quot;font-size: 22px;&quot;&gt;信息传输&lt;br&gt;&lt;/font&gt;" style="text;html=1;align=center;verticalAlign=middle;resizable=0;points=[];autosize=1;strokeColor=none;fillColor=none;rotation=90;" vertex="1" parent="1">
                    <mxGeometry x="560" y="420" width="110" height="40" as="geometry"/>
                </mxCell>
                <mxCell id="28" value="" style="endArrow=classic;html=1;fontSize=20;fontColor=#FF3333;strokeWidth=3;" edge="1" parent="1">
                    <mxGeometry width="50" height="50" relative="1" as="geometry">
                        <mxPoint x="534.5" y="290" as="sourcePoint"/>
                        <mxPoint x="535" y="210" as="targetPoint"/>
                    </mxGeometry>
                </mxCell>
                <mxCell id="30" value="" style="endArrow=classic;html=1;fontSize=20;fontColor=#FF3333;strokeWidth=3;" edge="1" parent="1">
                    <mxGeometry width="50" height="50" relative="1" as="geometry">
                        <mxPoint x="440" y="179.5" as="sourcePoint"/>
                        <mxPoint x="330" y="180" as="targetPoint"/>
                    </mxGeometry>
                </mxCell>
                <mxCell id="31" value="" style="endArrow=classic;html=1;fontSize=20;fontColor=#FF3333;strokeWidth=3;" edge="1" parent="1">
                    <mxGeometry width="50" height="50" relative="1" as="geometry">
                        <mxPoint x="259.5" y="210" as="sourcePoint"/>
                        <mxPoint x="260" y="290" as="targetPoint"/>
                    </mxGeometry>
                </mxCell>
                <mxCell id="32" value="" style="endArrow=classic;html=1;fontSize=20;fontColor=#FF3333;strokeWidth=3;" edge="1" parent="1">
                    <mxGeometry width="50" height="50" relative="1" as="geometry">
                        <mxPoint x="259.5" y="380" as="sourcePoint"/>
                        <mxPoint x="160" y="520" as="targetPoint"/>
                        <Array as="points">
                            <mxPoint x="260" y="440"/>
                            <mxPoint x="160" y="440"/>
                        </Array>
                    </mxGeometry>
                </mxCell>
            </root>
        </mxGraphModel>
    </diagram>
</mxfile>